<svg width="33" height="30" viewBox="0 0 33 30" fill="none" xmlns="http://www.w3.org/2000/svg">
<path d="M4.9946 27.9144L8.45198 30L28.0438 2.48663L24.7401 0L4.9946 27.9144ZM0.5 8.14171C0.5 12.3128 3.68848 15.2406 7.87575 15.2406C12.063 15.2406 15.2131 12.3128 15.2131 8.14171C15.2131 3.93048 12.063 1.00268 7.87575 1.00268C3.68848 1.00268 0.5 3.93048 0.5 8.14171ZM4.84094 8.14171C4.84094 6.17647 6.2623 4.89305 7.87575 4.89305C9.4892 4.89305 10.8721 6.17647 10.8721 8.14171C10.8721 10.1471 9.52761 11.4305 7.87575 11.4305C6.30072 11.4305 4.84094 10.1471 4.84094 8.14171ZM17.7869 22.2193C17.7869 26.3904 20.9754 29.3583 25.1627 29.3583C29.3115 29.3583 32.5 26.3904 32.5 22.2193C32.5 18.008 29.3115 15.1203 25.1627 15.1203C20.9754 15.1203 17.7869 18.008 17.7869 22.2193ZM22.1278 22.2193C22.1278 20.2139 23.5492 18.9305 25.1627 18.9305C26.7377 18.9305 28.1591 20.2139 28.1591 22.2193C28.1591 24.1845 26.7761 25.4679 25.1627 25.4679C23.5876 25.4679 22.1278 24.1845 22.1278 22.2193Z" fill="#1A246F"/>
</svg>
